<svg xmlns="http://www.w3.org/2000/svg" viewBox="0 0 245.73 260.46" width="68" height="68">
  <path fill="#00a1cc" d="M245.73 57.22a100.26 100.26 0 0 0-3.84-27.56 36.8 36.8 0 0 0-22.35-24 100.47 100.47 0 0 0-66.3 0 36.7 36.7 0 0 0-22.35 24 100.28 100.28 0 0 0 0 55.15 36.71 36.71 0 0 0 22.35 24 100.23 100.23 0 0 0 33.14 5.63 100.56 100.56 0 0 0 33.16-5.62 36.82 36.82 0 0 0 22.35-24 100.34 100.34 0 0 0 3.84-27.6zm-35.84 0a44.87 44.87 0 0 1-2 13.43A16.9 16.9 0 0 1 195 82.13a45.24 45.24 0 0 1-17.21 0 16.9 16.9 0 0 1-12.86-11.47 45.1 45.1 0 0 1 0-26.87 16.9 16.9 0 0 1 12.86-11.47 45.4 45.4 0 0 1 17.21 0 16.91 16.91 0 0 1 12.85 11.48 44.84 44.84 0 0 1 2 13.43m-95 150a100.77 100.77 0 0 0 0-55.15 36.78 36.78 0 0 0-22.34-24 100.41 100.41 0 0 0-66.3 0 36.68 36.68 0 0 0-22.35 24 100.21 100.21 0 0 0 0 55.15 36.69 36.69 0 0 0 22.35 24 100.47 100.47 0 0 0 66.3 0 36.8 36.8 0 0 0 22.35-24m-32-27.57a45 45 0 0 1-2 13.44A16.9 16.9 0 0 1 68 204.56a45.25 45.25 0 0 1-17.21 0 16.89 16.89 0 0 1-12.9-11.46 45.15 45.15 0 0 1 0-26.87 16.9 16.9 0 0 1 12.86-11.46 45.36 45.36 0 0 1 17.21 0 16.9 16.9 0 0 1 12.87 11.46 45 45 0 0 1 2 13.43M82.86 57h35.84a100.51 100.51 0 0 0-3.84-27.35 36.8 36.8 0 0 0-22.34-24 100.5 100.5 0 0 0-66.31 0 36.71 36.71 0 0 0-22.35 24 100.27 100.27 0 0 0 0 55.15 36.71 36.71 0 0 0 22.35 24 100.37 100.37 0 0 0 33.14 5.63 100.7 100.7 0 0 0 33.17-5.63 36.81 36.81 0 0 0 22.35-24c.44-1.52.84-3.09 1.2-4.64L82.29 64.41a44.56 44.56 0 0 1-1.46 6.25A16.91 16.91 0 0 1 68 82.13a45.25 45.25 0 0 1-17.21 0 16.9 16.9 0 0 1-12.9-11.47 45.14 45.14 0 0 1 0-26.87 16.9 16.9 0 0 1 12.86-11.46 45.3 45.3 0 0 1 17.21 0A16.9 16.9 0 0 1 80.83 43.8a45 45 0 0 1 2 13.21m48 95.08a100.35 100.35 0 0 0-3.83 27.57v80.8h35.84v-80.8a44.65 44.65 0 0 1 2-13.43 16.9 16.9 0 0 1 12.86-11.46 45.35 45.35 0 0 1 17.21 0 16.91 16.91 0 0 1 12.86 11.46 45.2 45.2 0 0 1 0 26.87A16.9 16.9 0 0 1 195 204.56a45.35 45.35 0 0 1-17.21 0 16.9 16.9 0 0 1-3.39-1l12.15 33.38a100.45 100.45 0 0 0 33-5.63 36.79 36.79 0 0 0 22.35-24 100.92 100.92 0 0 0 0-55.15 36.78 36.78 0 0 0-22.35-24 100.41 100.41 0 0 0-66.3 0 36.67 36.67 0 0 0-22.35 24"/>
</svg>
